Patient4_TMGait_0pt5_02_right_42_GRF.mot
version=1
nRows=78
nColumns=19
inDegrees=no
endheader
time	F1x	F1y	F1z	M1x	M1y	M1z	F2x	F2y	F2z	M2x	M2y	M2z	EC1x	EC1y	EC1z	EC2x	EC2y	EC2z
54.9	-4.4095	779.8029	70.1795	-278.3213	-61.2445	709.9404	-7.8509	10.3215	-6.7698	4.4655	11.3646	7.384	-0.0592	0.0182	-0.0073	-0.0462	0.0165	0.9585
54.9123	-5.8775	763.0981	67.4689	-271.9123	-58.9796	692.2592	-5.3781	8.0648	-4.6474	3.4678	7.8195	5.9921	-0.0592	0.0182	-0.0073	-0.0462	0.0165	0.9585
54.9246	-6.7919	744.6344	64.5131	-264.8962	-56.3106	672.6999	-3.2928	6.1879	-2.8069	2.6179	4.7552	4.8703	-0.0592	0.0182	-0.0073	-0.0462	0.0165	0.9585
54.9369	-7.0481	725.8835	61.5052	-257.8487	-53.3856	652.6526	-1.7057	4.787	-1.3766	1.971	2.3785	4.0656	-0.0592	0.0182	-0.0073	-0.0462	0.0165	0.9585
54.9491	-6.6555	708.3896	58.5871	-251.3536	-50.337	633.5119	-0.62693	3.8536	-0.36654	1.5303	0.7098	3.569	-0.0592	0.0182	-0.0073	-0.0462	0.0165	0.9585
54.9614	-5.6489	693.6083	55.8488	-245.9447	-47.2568	616.5479	0.032858	3.3093	0.27397	1.2665	-0.341	3.3161	-0.0592	0.0182	-0.0073	-0.0462	0.0165	0.9585
54.9737	-4.0699	682.7853	53.3256	-242.0666	-44.1846	602.8164	0.35271	3.0536	0.62553	1.1357	-0.90146	3.2516	-0.0592	0.0182	-0.0073	-0.0462	0.0165	0.9585
54.986	-1.9593	676.8899	51.0534	-240.053	-41.1591	593.1221	0.43225	2.9637	0.77034	1.0843	-1.1082	3.2757	-0.0592	0.0182	-0.0073	-0.0462	0.0165	0.9585
54.9983	0.64136	676.4959	49.0569	-240.0878	-38.2005	587.922	0.33698	2.9212	0.77753	1.0599	-1.0766	3.2923	-0.0592	0.0182	-0.0073	-0.0462	0.0165	0.9585
55.0106	3.6667	681.6696	47.4136	-242.1638	-35.3838	587.2623	0.12299	2.7924	0.70272	1.0062	-0.90006	3.1781	-0.0592	0.0182	-0.0073	-0.0462	0.0165	0.9585
55.0229	7.0292	691.9263	46.2029	-246.075	-32.792	590.7352	-0.173	2.4557	0.58584	0.87115	-0.64262	2.8191	-0.0592	0.0182	-0.0073	-0.0462	0.0165	0.9585
55.0351	10.648	706.298	45.5244	-251.4415	-30.5312	597.557	-0.52099	1.7919	0.45589	0.60648	-0.35123	2.1074	-0.0592	0.0182	-0.0073	-0.0462	0.0165	0.9585
55.0474	14.4251	723.4633	45.4214	-257.7608	-28.6669	606.6717	-0.87428	0.71329	0.32794	0.17793	-0.061675	0.96871	-0.0592	0.0182	-0.0073	-0.0462	0.0165	0.9585
55.0597	18.2693	741.8646	45.9118	-264.453	-27.2514	616.8395	-1.1813	-0.81783	0.21558	-0.42865	0.1887	-0.61977	-0.0592	0.0182	-0.0073	-0.0462	0.0165	0.9585
55.072	22.0782	759.8366	46.9348	-270.9052	-26.2737	626.734	-1.3375	-2.7534	0.13091	-1.1931	0.34504	-2.6071	-0.0592	0.0182	-0.0073	-0.0462	0.0165	0.9585
55.0843	25.7617	775.7139	48.4004	-276.5135	-25.7013	635.0299	-1.2103	-4.8981	0.093486	-2.0383	0.33211	-4.796	-0.0592	0.0182	-0.0073	-0.0462	0.0165	0.9585
55.0966	29.2461	787.991	50.1542	-280.7406	-25.4457	640.5449	-0.59901	-6.8439	0.13614	-2.803	0.040183	-6.7838	-0.0592	0.0182	-0.0073	-0.0462	0.0165	0.9585
55.1089	32.5035	795.5154	52.014	-283.1842	-25.3895	642.384	0.72161	-7.8774	0.29504	-3.2058	-0.65044	-7.8518	-0.0592	0.0182	-0.0073	-0.0462	0.0165	0.9585
55.1211	35.5132	797.6228	53.7989	-283.6269	-25.4107	640.0536	3.0119	-6.9344	0.60502	-2.8232	-1.8628	-6.9398	-0.0592	0.0182	-0.0073	-0.0462	0.0165	0.9585
55.1334	38.2987	794.1708	55.3558	-282.0463	-25.3962	633.463	6.4913	-2.5401	1.0943	-1.0722	-3.6998	-2.5717	-0.0592	0.0182	-0.0073	-0.0462	0.0165	0.9585
55.1457	40.9037	785.4519	56.5757	-278.5802	-25.2568	622.8686	11.2711	7.1167	1.7802	2.7659	-6.2158	7.0494	-0.0592	0.0182	-0.0073	-0.0462	0.0165	0.9585
55.158	43.4143	772.037	57.348	-273.467	-24.8835	608.7444	17.2155	24.0182	2.6491	9.4772	-9.3376	23.9012	-0.0592	0.0182	-0.0073	-0.0462	0.0165	0.9585
55.1703	45.9021	754.5608	57.5727	-266.9652	-24.173	591.6171	23.7752	49.9433	3.6399	19.7691	-12.7811	49.7649	-0.0592	0.0182	-0.0073	-0.0462	0.0165	0.9585
55.1826	48.3911	733.5232	57.0989	-259.2804	-22.9945	571.9262	29.7558	85.8372	4.5984	34.0186	-15.9217	85.5934	-0.0592	0.0182	-0.0073	-0.0462	0.0165	0.9585
55.1949	50.8075	709.1061	55.7851	-250.4993	-21.2639	549.8912	33.1729	130.9213	5.2523	51.9199	-17.7146	130.6151	-0.0592	0.0182	-0.0073	-0.0462	0.0165	0.9585
55.2071	53.0019	681.1793	53.4802	-240.5894	-18.9158	525.4955	31.6412	181.9581	5.1678	72.1836	-16.8211	181.6252	-0.0592	0.0182	-0.0073	-0.0462	0.0165	0.9585
55.2194	54.7445	649.4503	50.1535	-229.4461	-16.0095	498.596	24.6875	234.1546	3.6413	92.8575	-12.3859	233.931	-0.0592	0.0182	-0.0073	-0.0462	0.0165	0.9585
55.2317	55.7958	613.6892	45.9134	-216.9694	-12.7053	469.0772	14.7851	283.0162	0.41732	112.1311	-5.1643	282.8851	-0.0592	0.0182	-0.0073	-0.0462	0.0165	0.9585
55.244	55.9554	573.8847	41.0955	-203.1145	-9.312	436.9665	4.4781	325.9268	-3.9819	128.9772	3.293	325.6109	-0.0592	0.0182	-0.0073	-0.0462	0.0165	0.9585
55.2563	55.1162	530.2893	36.0911	-187.9264	-6.1413	402.4478	-4.5436	362.7999	-8.9919	143.3874	11.7561	361.7628	-0.0592	0.0182	-0.0073	-0.0462	0.0165	0.9585
55.2686	53.2239	483.4733	31.208	-171.5678	-3.4226	365.9329	-11.5728	395.1703	-13.6138	156.0133	18.9689	392.8413	-0.0592	0.0182	-0.0073	-0.0462	0.0165	0.9585
55.2809	50.2932	434.2473	26.6113	-154.302	-1.2644	327.9954	-16.5624	424.7236	-17.5039	167.5641	24.5848	420.5788	-0.0592	0.0182	-0.0073	-0.0462	0.0165	0.9585
55.2931	46.3068	383.6741	22.3236	-136.4897	0.3195	289.4058	-19.8139	453.0866	-20.3287	178.7042	28.4112	446.6243	-0.0592	0.0182	-0.0073	-0.0462	0.0165	0.9585
55.3054	41.2923	332.9667	18.3188	-118.5577	1.3559	251.0114	-21.6394	481.7377	-22.4886	190.0083	30.9785	472.4411	-0.0592	0.0182	-0.0073	-0.0462	0.0165	0.9585
55.3177	35.3008	283.5106	14.6051	-100.9986	1.8582	213.8028	-22.3881	512.1009	-24.2899	202.0099	32.7411	499.4554	-0.0592	0.0182	-0.0073	-0.0462	0.0165	0.9585
55.33	28.5286	236.6862	11.2458	-84.3174	1.8461	178.721	-22.4337	544.9641	-26.4016	214.9662	34.5032	528.4983	-0.0592	0.0182	-0.0073	-0.0462	0.0165	0.9585
55.3423	21.2813	193.7647	8.3431	-68.9825	1.3547	146.652	-22.2403	580.1483	-29.1302	228.7659	36.7474	559.4808	-0.0592	0.0182	-0.0073	-0.0462	0.0165	0.9585
55.3546	14.036	155.665	5.9902	-55.3428	0.47957	118.1904	-22.2731	616.6949	-32.7903	242.9954	39.9547	591.5982	-0.0592	0.0182	-0.0073	-0.0462	0.0165	0.9585
55.3669	7.2421	122.8117	4.2268	-43.5676	-0.64935	93.6173	-22.7803	653.3959	-37.2365	257.1661	44.0844	623.7609	-0.0592	0.0182	-0.0073	-0.0462	0.0165	0.9585
55.3791	1.3304	95.0966	3	-33.6377	-1.8468	72.802	-23.8355	688.9999	-42.234	270.7838	48.9362	654.8399	-0.0592	0.0182	-0.0073	-0.0462	0.0165	0.9585
55.3914	-3.4452	72.0813	2.2087	-25.4074	-2.954	55.4404	-25.3208	722.2268	-47.3066	283.3657	54.012	683.6548	-0.0592	0.0182	-0.0073	-0.0462	0.0165	0.9585
55.4037	-6.9182	53.1839	1.704	-18.6762	-3.806	41.1168	-27.0823	751.8312	-52.1382	294.4355	58.9487	709.0926	-0.0592	0.0182	-0.0073	-0.0462	0.0165	0.9585
55.416	-9.0085	37.8637	1.3803	-13.2438	-4.299	29.4781	-28.9186	776.6349	-56.4407	303.5535	63.3924	730.0557	-0.0592	0.0182	-0.0073	-0.0462	0.0165	0.9585
55.4283	-9.6379	25.6303	1.1295	-8.9287	-4.3275	20.1788	-30.6586	795.7168	-60.0943	310.3706	67.1638	745.7241	-0.0592	0.0182	-0.0073	-0.0462	0.0165	0.9585
55.4406	-8.8925	16.0777	0.91678	-5.5788	-3.9008	12.9206	-32.0933	808.4456	-63.0264	314.659	70.1265	755.5155	-0.0592	0.0182	-0.0073	-0.0462	0.0165	0.9585
55.4529	-7.1779	8.9879	0.70471	-3.1073	-3.1303	7.521	-33.0726	814.5959	-65.2221	316.3511	72.2215	759.2209	-0.0592	0.0182	-0.0073	-0.0462	0.0165	0.9585
55.4651	-5.1777	4.2104	0.51883	-1.4481	-2.2701	3.881	-33.4338	814.4272	-66.6764	315.5743	73.3991	757.0476	-0.0592	0.0182	-0.0073	-0.0462	0.0165	0.9585
55.4774	-3.2941	1.3472	0.37118	-0.45837	-1.4776	1.7091	-33.076	808.7299	-67.426	312.6632	73.6577	749.702	-0.0592	0.0182	-0.0073	-0.0462	0.0165	0.9585
55.4897	-1.7459	-0.066254	0.26367	0.027803	-0.8363	0.65821	-31.9532	798.7635	-67.5534	308.132	73.0524	738.3141	-0.0592	0.0182	-0.0073	-0.0462	0.0165	0.9585
55.502	-0.59264	-0.48239	0.18586	0.16896	-0.36416	0.36794	-30.1047	786.0478	-67.1907	302.5858	71.7155	724.2562	-0.0592	0.0182	-0.0073	-0.0462	0.0165	0.9585
55.5143	0.18812	-0.29942	0.13462	0.10226	-0.054403	0.52592	-27.658	772.0966	-66.5089	296.621	69.849	708.9121	-0.0592	0.0182	-0.0073	-0.0462	0.0165	0.9585
55.5266	0.65375	0.20102	0.10117	-0.07395	0.11886	0.92151	-24.7836	758.2991	-65.6362	290.7815	67.642	693.5568	-0.0592	0.0182	-0.0073	-0.0462	0.0165	0.9585
55.5389	0.88041	0.79999	0.088008	-0.28717	0.18407	1.3824	-21.6772	745.8777	-64.6791	285.5408	65.2688	679.315	-0.0592	0.0182	-0.0073	-0.0462	0.0165	0.9585
55.5511	0.92932	1.3862	0.088159	-0.5006	0.17484	1.8393	-18.4653	735.7805	-63.6926	281.2675	62.8334	667.0283	-0.0592	0.0182	-0.0073	-0.0462	0.0165	0.9585
55.5634	0.87421	1.8827	0.10919	-0.68836	0.11384	2.2222	-15.2568	728.6128	-62.7336	278.1975	60.4281	657.2429	-0.0592	0.0182	-0.0073	-0.0462	0.0165	0.9585
55.5757	0.74504	2.2606	0.13952	-0.8356	0.029084	2.5181	-12.0798	724.6426	-61.8111	276.4374	58.0748	650.1722	-0.0592	0.0182	-0.0073	-0.0462	0.0165	0.9585
55.588	0.58346	2.491	0.18406	-0.92574	-0.067017	2.6797	-8.9637	723.8492	-60.9522	275.9744	55.8094	645.7906	-0.0592	0.0182	-0.0073	-0.0462	0.0165	0.9585
55.6003	0.39264	2.549	0.23128	-0.94575	-0.16984	2.6895	-5.8944	725.9135	-60.1596	276.6798	53.6299	643.7984	-0.0592	0.0182	-0.0073	-0.0462	0.0165	0.9585
55.6126	0.19902	2.3698	0.28226	-0.8741	-0.27836	2.4652	-2.8743	730.2892	-59.4783	278.3293	51.578	643.7332	-0.0592	0.0182	-0.0073	-0.0462	0.0165	0.9585
55.6249	0.008766	1.882	0.32762	-0.68636	-0.38531	1.9403	0.099663	736.1892	-58.9142	280.6109	49.6577	644.9235	-0.0592	0.0182	-0.0073	-0.0462	0.0165	0.9585
55.6371	-0.15332	0.99756	0.365	-0.35364	-0.47729	1.0203	2.9992	742.6755	-58.4874	283.1537	47.899	646.597	-0.0592	0.0182	-0.0073	-0.0462	0.0165	0.9585
55.6494	-0.2621	-0.35422	0.378	0.14794	-0.52671	-0.36574	5.7993	748.7441	-58.1559	285.5654	46.2729	647.9227	-0.0592	0.0182	-0.0073	-0.0462	0.0165	0.9585
55.6617	-0.27731	-2.2164	0.35354	0.82865	-0.50283	-2.2611	8.4464	753.4536	-57.8875	287.4812	44.7687	648.1336	-0.0592	0.0182	-0.0073	-0.0462	0.0165	0.9585
55.674	-0.12912	-4.5509	0.26754	1.6721	-0.35551	-4.6265	10.8703	756.0532	-57.6162	288.6086	43.3531	646.6558	-0.0592	0.0182	-0.0073	-0.0462	0.0165	0.9585
55.6863	0.25444	-7.1561	0.098841	2.6068	-0.03243	-7.2584	13.0192	756.0385	-57.3214	288.7478	42.0311	643.1248	-0.0592	0.0182	-0.0073	-0.0462	0.0165	0.9585
55.6986	0.99061	-9.5908	-0.18026	3.4706	0.53343	-9.7246	14.8365	753.2646	-56.976	287.8335	40.7981	637.4794	-0.0592	0.0182	-0.0073	-0.0462	0.0165	0.9585
55.7109	2.1691	-11.067	-0.58948	3.9762	1.3922	-11.2218	16.3274	747.9599	-56.6078	285.9415	39.6784	629.9297	-0.0592	0.0182	-0.0073	-0.0462	0.0165	0.9585
55.7231	3.8854	-10.3843	-1.1341	3.684	2.5765	-10.5413	17.5338	740.6905	-56.2399	283.2758	38.6741	620.957	-0.0592	0.0182	-0.0073	-0.0462	0.0165	0.9585
55.7354	6.1366	-5.8654	-1.7775	1.9811	4.0457	-5.9548	18.588	732.1448	-55.9055	280.0908	37.771	611.1123	-0.0592	0.0182	-0.0073	-0.0462	0.0165	0.9585
55.7477	8.8117	4.59	-2.4286	-1.9026	5.6603	4.692	19.636	722.9014	-55.6038	276.6024	36.9132	600.8614	-0.0592	0.0182	-0.0073	-0.0462	0.0165	0.9585
55.76	11.5512	23.3453	-2.9119	-8.8307	7.1083	23.8347	20.8649	713.1428	-55.3118	272.8822	36.0174	590.3259	-0.0592	0.0182	-0.0073	-0.0462	0.0165	0.9585
55.7723	13.7099	52.6229	-2.9661	-19.6099	7.8808	53.7449	22.3788	702.5262	-54.9326	268.8057	34.9662	579.2274	-0.0592	0.0182	-0.0073	-0.0462	0.0165	0.9585
55.7846	14.2087	93.8929	-2.2586	-34.7609	7.2449	95.9493	24.2092	690.099	-54.3148	264.0212	33.6324	566.7991	-0.0592	0.0182	-0.0073	-0.0462	0.0165	0.9585
55.7969	11.8056	147.0678	-0.48411	-54.2258	4.4324	150.3741	26.2719	674.423	-53.263	257.9947	31.8966	551.9119	-0.0592	0.0182	-0.0073	-0.0462	0.0165	0.9585
55.8091	5.9581	209.8725	2.7176	-77.1317	-1.1159	214.7082	28.3934	653.801	-51.594	250.0944	29.683	533.2421	-0.0592	0.0182	-0.0073	-0.0462	0.0165	0.9585
55.8214	-2.4353	277.2029	7.6395	-101.5694	-9.3575	283.6347	30.3458	626.6058	-49.1834	239.711	26.9809	509.5298	-0.0592	0.0182	-0.0073	-0.0462	0.0165	0.9585
55.8337	-11.5242	341.713	14.4511	-124.8512	-19.7246	349.3701	31.8769	591.5854	-46.0239	226.3755	23.8843	479.8036	-0.0592	0.0182	-0.0073	-0.0462	0.0165	0.9585
55.846	-19.6507	398.0512	22.4126	-145.0493	-30.8002	406.1546	32.7521	548.2776	-42.223	209.909	20.5794	443.7067	-0.0592	0.0182	-0.0073	-0.0462	0.0165	0.9585
